<?xml version="1.0" encoding="utf-8"?>
<svg viewBox="0 0 1024 1024" xmlns="http://www.w3.org/2000/svg" xmlns:bx="https://boxy-svg.com">
  <defs>
    <style bx:fonts="Nunito">@import url(https://fonts.googleapis.com/css2?family=Nunito%3Aital%2Cwght%400%2C200%3B0%2C300%3B0%2C400%3B0%2C500%3B0%2C600%3B0%2C700%3B0%2C800%3B0%2C900%3B1%2C200%3B1%2C300%3B1%2C400%3B1%2C500%3B1%2C600%3B1%2C700%3B1%2C800%3B1%2C900&amp;display=swap);</style>
  </defs>
  <rect x="-7.05" y="-14.1" width="1089.212" height="1085.687" style="stroke: rgb(0, 0, 0); stroke-width: 0px; stroke-opacity: 0; fill: rgb(255, 255, 255);" transform="matrix(1, 0, 0, 1, 1.4210854715202004e-14, 0)"/>
  <path d="M 213.581 883.419 L 451.215 678.517 L 592.454 788.717 L 798.297 578.087 L 804.921 992.155 L 208.983 992.327 L 213.581 883.419 Z" style="fill: rgba(21, 79, 52, 0.58); transform-origin: 500.437px 785.179px;"/>
  <path d="M 805.009 997.604 C 792.327 997.492 785.899 991.988 785.725 981.09 L 779.536 594.264 C 779.362 583.368 785.615 577.975 798.297 578.087 C 810.978 578.2 817.407 583.705 817.581 594.601 L 823.769 981.427 C 823.943 992.324 817.69 997.716 805.009 997.604 Z M 621.129 995.976 L 608.447 995.864 C 602.107 995.808 595.679 990.303 595.591 984.856 L 592.454 788.717 C 592.366 783.269 598.619 777.877 604.96 777.933 L 617.642 778.046 C 623.982 778.102 630.41 783.606 630.498 789.053 L 633.635 985.192 C 633.722 990.64 627.469 996.032 621.129 995.976 Z M 418.226 994.18 L 411.885 994.124 C 405.544 994.068 399.118 988.563 399.03 983.116 L 395.456 759.736 C 395.369 754.288 401.623 748.896 407.962 748.952 L 414.305 749.008 C 420.558 743.616 426.986 749.119 427.159 760.017 L 430.733 983.396 C 430.821 988.844 424.568 994.236 418.226 994.18 Z M 208.983 992.327 L 189.961 992.159 C 183.621 992.103 183.534 986.655 183.534 986.655 L 181.964 888.586 C 181.878 883.138 188.217 883.194 188.217 883.194 L 207.241 883.363 C 213.581 883.419 213.667 888.867 213.667 888.867 L 215.237 986.935 C 215.237 986.935 215.324 992.384 208.983 992.327 Z M 211.576 758.109 L 449.472 569.552 L 552.056 641.278 L 739.399 463.169 L 797.337 518.156 L 845.361 349.71 L 636.555 375.099 L 700.92 435.591 L 544.757 581.29 L 448.512 509.621 L 179.35 725.138 L 211.576 758.109 Z" style="fill: rgb(224, 4, 116); transform-origin: 514.491px 670.906px;"/>
  <text style="fill: rgb(224, 4, 116); font-family: Nunito; font-size: 200px; letter-spacing: 20px; stroke-width: 13px; white-space: pre;" x="297.859" y="296.096" transform="matrix(1.705003023147583, 0, 0, 1.6322579383850098, -328.0775451660156, -214.157958984375)">404</text>
</svg>