<svg width="25" height="32" viewBox="0 0 25 32" fill="none" xmlns="http://www.w3.org/2000/svg">
<g clip-path="url(#clip0_83801_4528)">
<path d="M6.75 4.29883L7.59115 13.9721C7.68102 15.0056 8.54622 15.7988 9.58363 15.7988H14.4164C15.4538 15.7988 16.319 15.0056 16.4088 13.9721L17.25 4.29883" stroke="#AE1100" stroke-width="1.5" stroke-linecap="round" stroke-linejoin="round"/>
<path d="M9.75 4.04883V3.29883C9.75 2.19426 10.6454 1.29883 11.75 1.29883H12.25C13.3546 1.29883 14.25 2.19426 14.25 3.29883V4.04883" stroke="#AE1100" stroke-width="1.5" stroke-linecap="round" stroke-linejoin="round"/>
<path d="M5 4.29883H19" stroke="#AE1100" stroke-width="1.5" stroke-linecap="round" stroke-linejoin="round"/>
</g>
<path d="M1.104 28.5488C0.96 28.5488 0.848 28.5115 0.768 28.4368C0.693333 28.3568 0.656 28.2448 0.656 28.1008V23.3568C0.656 23.2128 0.693333 23.1035 0.768 23.0288C0.848 22.9488 0.96 22.9088 1.104 22.9088H4.024C4.136 22.9088 4.22133 22.9382 4.28 22.9968C4.33867 23.0502 4.368 23.1302 4.368 23.2368C4.368 23.3488 4.33867 23.4342 4.28 23.4928C4.22133 23.5515 4.136 23.5808 4.024 23.5808H1.456V25.3488H3.848C3.96533 25.3488 4.05067 25.3782 4.104 25.4368C4.16267 25.4955 4.192 25.5782 4.192 25.6848C4.192 25.7968 4.16267 25.8822 4.104 25.9408C4.05067 25.9942 3.96533 26.0208 3.848 26.0208H1.456V27.8768H4.024C4.136 27.8768 4.22133 27.9062 4.28 27.9648C4.33867 28.0235 4.368 28.1062 4.368 28.2128C4.368 28.3248 4.33867 28.4102 4.28 28.4688C4.22133 28.5222 4.136 28.5488 4.024 28.5488H1.104ZM5.41494 28.5968C5.31894 28.5968 5.23894 28.5702 5.17494 28.5168C5.11627 28.4582 5.08427 28.3862 5.07894 28.3008C5.07894 28.2155 5.11627 28.1222 5.19094 28.0208L6.54294 26.3328V26.7328L5.27894 25.1568C5.1936 25.0608 5.1536 24.9702 5.15894 24.8848C5.16427 24.7942 5.19894 24.7222 5.26294 24.6688C5.32694 24.6155 5.40427 24.5888 5.49494 24.5888C5.59627 24.5888 5.67894 24.6075 5.74294 24.6448C5.81227 24.6768 5.87627 24.7328 5.93494 24.8128L6.99894 26.1648H6.71094L7.78294 24.8128C7.8416 24.7328 7.90294 24.6768 7.96694 24.6448C8.03627 24.6075 8.11894 24.5888 8.21494 24.5888C8.31094 24.5888 8.38827 24.6182 8.44694 24.6768C8.51094 24.7302 8.54294 24.8022 8.54294 24.8928C8.54827 24.9782 8.51094 25.0688 8.43094 25.1648L7.16694 26.7168V26.3568L8.51894 28.0208C8.59894 28.1168 8.63627 28.2102 8.63094 28.3008C8.63094 28.3862 8.59894 28.4582 8.53494 28.5168C8.47094 28.5702 8.39094 28.5968 8.29494 28.5968C8.19894 28.5968 8.11627 28.5782 8.04694 28.5408C7.98294 28.5035 7.91894 28.4475 7.85494 28.3728L6.71094 26.9328H6.98294L5.84694 28.3728C5.78827 28.4422 5.72427 28.4982 5.65494 28.5408C5.59094 28.5782 5.51094 28.5968 5.41494 28.5968ZM11.1786 28.6208C10.7786 28.6208 10.432 28.5382 10.1386 28.3728C9.85063 28.2022 9.62663 27.9648 9.46663 27.6608C9.30663 27.3515 9.22663 26.9888 9.22663 26.5728C9.22663 26.2635 9.27196 25.9862 9.36263 25.7408C9.45329 25.4902 9.58129 25.2795 9.74663 25.1088C9.91729 24.9382 10.1226 24.8075 10.3626 24.7168C10.608 24.6208 10.88 24.5728 11.1786 24.5728C11.3653 24.5728 11.56 24.6022 11.7626 24.6608C11.9706 24.7142 12.1626 24.8048 12.3386 24.9328C12.408 24.9755 12.4506 25.0288 12.4666 25.0928C12.488 25.1515 12.4906 25.2128 12.4746 25.2768C12.464 25.3408 12.4346 25.3968 12.3866 25.4448C12.344 25.4875 12.2906 25.5142 12.2266 25.5248C12.1626 25.5302 12.0933 25.5115 12.0186 25.4688C11.8906 25.3782 11.76 25.3142 11.6266 25.2768C11.4933 25.2342 11.3653 25.2128 11.2426 25.2128C11.0506 25.2128 10.88 25.2448 10.7306 25.3088C10.5866 25.3675 10.464 25.4555 10.3626 25.5728C10.2613 25.6848 10.184 25.8262 10.1306 25.9968C10.0826 26.1675 10.0586 26.3622 10.0586 26.5808C10.0586 27.0182 10.16 27.3622 10.3626 27.6128C10.5706 27.8582 10.864 27.9808 11.2426 27.9808C11.3653 27.9808 11.4933 27.9622 11.6266 27.9248C11.76 27.8875 11.8906 27.8235 12.0186 27.7328C12.0933 27.6902 12.1626 27.6742 12.2266 27.6848C12.2906 27.6955 12.3413 27.7248 12.3786 27.7728C12.4213 27.8155 12.448 27.8688 12.4586 27.9328C12.4746 27.9915 12.472 28.0528 12.4506 28.1168C12.4293 28.1808 12.384 28.2342 12.3146 28.2768C12.144 28.3995 11.9573 28.4875 11.7546 28.5408C11.5573 28.5942 11.3653 28.6208 11.1786 28.6208ZM14.449 28.6208C14.033 28.6208 13.7183 28.5008 13.505 28.2608C13.297 28.0155 13.193 27.6635 13.193 27.2048V23.2608C13.193 23.1275 13.2277 23.0262 13.297 22.9568C13.3663 22.8875 13.465 22.8528 13.593 22.8528C13.721 22.8528 13.8197 22.8875 13.889 22.9568C13.9637 23.0262 14.001 23.1275 14.001 23.2608V27.1568C14.001 27.4235 14.0543 27.6235 14.161 27.7568C14.273 27.8848 14.433 27.9488 14.641 27.9488C14.689 27.9488 14.7317 27.9488 14.769 27.9488C14.8063 27.9435 14.8437 27.9382 14.881 27.9328C14.945 27.9275 14.9903 27.9462 15.017 27.9888C15.0437 28.0262 15.057 28.1062 15.057 28.2288C15.057 28.3408 15.033 28.4288 14.985 28.4928C14.937 28.5515 14.8597 28.5888 14.753 28.6048C14.705 28.6102 14.6543 28.6128 14.601 28.6128C14.5477 28.6182 14.497 28.6208 14.449 28.6208ZM17.0303 28.6208C16.7156 28.6208 16.4516 28.5622 16.2383 28.4448C16.0303 28.3275 15.873 28.1542 15.7663 27.9248C15.665 27.6902 15.6143 27.3968 15.6143 27.0448V24.9968C15.6143 24.8582 15.649 24.7568 15.7183 24.6928C15.7876 24.6235 15.8863 24.5888 16.0143 24.5888C16.1423 24.5888 16.241 24.6235 16.3103 24.6928C16.385 24.7568 16.4223 24.8582 16.4223 24.9968V27.0528C16.4223 27.3675 16.4863 27.5995 16.6143 27.7488C16.7423 27.8982 16.945 27.9728 17.2223 27.9728C17.5263 27.9728 17.7716 27.8715 17.9583 27.6688C18.1503 27.4608 18.2463 27.1888 18.2463 26.8528V24.9968C18.2463 24.8582 18.281 24.7568 18.3503 24.6928C18.4196 24.6235 18.521 24.5888 18.6543 24.5888C18.7823 24.5888 18.881 24.6235 18.9503 24.6928C19.0196 24.7568 19.0543 24.8582 19.0543 24.9968V28.1968C19.0543 28.4688 18.9236 28.6048 18.6623 28.6048C18.5396 28.6048 18.4436 28.5702 18.3743 28.5008C18.305 28.4262 18.2703 28.3248 18.2703 28.1968V27.5168L18.3743 27.6928C18.2676 27.9915 18.097 28.2208 17.8623 28.3808C17.6276 28.5408 17.3503 28.6208 17.0303 28.6208ZM20.593 28.5968C20.465 28.5968 20.3663 28.5595 20.297 28.4848C20.2277 28.4048 20.193 28.2955 20.193 28.1568V25.0368C20.193 24.8982 20.2277 24.7915 20.297 24.7168C20.3663 24.6422 20.465 24.6048 20.593 24.6048C20.721 24.6048 20.8197 24.6422 20.889 24.7168C20.9637 24.7915 21.001 24.8982 21.001 25.0368V28.1568C21.001 28.2955 20.9663 28.4048 20.897 28.4848C20.8277 28.5595 20.7263 28.5968 20.593 28.5968ZM20.593 23.7728C20.433 23.7728 20.3077 23.7328 20.217 23.6528C20.1317 23.5728 20.089 23.4608 20.089 23.3168C20.089 23.1675 20.1317 23.0555 20.217 22.9808C20.3077 22.9008 20.433 22.8608 20.593 22.8608C20.753 22.8608 20.8757 22.9008 20.961 22.9808C21.0517 23.0555 21.097 23.1675 21.097 23.3168C21.097 23.4608 21.0517 23.5728 20.961 23.6528C20.8757 23.7328 20.753 23.7728 20.593 23.7728ZM22.5463 28.6048C22.413 28.6048 22.3116 28.5702 22.2423 28.5008C22.173 28.4262 22.1383 28.3248 22.1383 28.1968V24.9968C22.1383 24.8635 22.173 24.7622 22.2423 24.6928C22.3116 24.6235 22.4076 24.5888 22.5303 24.5888C22.6583 24.5888 22.7543 24.6235 22.8183 24.6928C22.8876 24.7622 22.9223 24.8635 22.9223 24.9968V25.5808H22.8423C22.9276 25.2608 23.085 25.0182 23.3143 24.8528C23.5436 24.6875 23.837 24.5915 24.1943 24.5648C24.2903 24.5595 24.365 24.5835 24.4183 24.6368C24.477 24.6902 24.509 24.7728 24.5143 24.8848C24.525 24.9968 24.501 25.0875 24.4423 25.1568C24.3836 25.2208 24.293 25.2582 24.1703 25.2688L24.0183 25.2848C23.6716 25.3168 23.4076 25.4262 23.2263 25.6128C23.045 25.7995 22.9543 26.0555 22.9543 26.3808V28.1968C22.9543 28.3248 22.9196 28.4262 22.8503 28.5008C22.7863 28.5702 22.685 28.6048 22.5463 28.6048Z" fill="#AE1100"/>
<defs>
<clipPath id="clip0_83801_4528">
<rect width="17" height="16" fill="white" transform="translate(4 0.548828)"/>
</clipPath>
</defs>
</svg>
