<svg width="22" height="32" viewBox="0 0 22 32" fill="none" xmlns="http://www.w3.org/2000/svg">
<g clip-path="url(#clip0_83801_4523)">
<path d="M3.75 15.7987L8 14.7987L17.2929 5.50579C17.6834 5.11526 17.6834 4.4821 17.2929 4.09157L15.4571 2.25579C15.0666 1.86526 14.4334 1.86526 14.0429 2.25579L4.75 11.5487L3.75 15.7987Z" stroke="#747488" stroke-width="1.5" stroke-linecap="round" stroke-linejoin="round"/>
<path d="M18.25 15.7988H12.75" stroke="#747488" stroke-width="1.5" stroke-linecap="round" stroke-linejoin="round"/>
</g>
<path d="M1.104 28.5488C0.96 28.5488 0.848 28.5115 0.768 28.4368C0.693333 28.3568 0.656 28.2448 0.656 28.1008V23.3568C0.656 23.2128 0.693333 23.1035 0.768 23.0288C0.848 22.9488 0.96 22.9088 1.104 22.9088H4.024C4.136 22.9088 4.22133 22.9382 4.28 22.9968C4.33867 23.0502 4.368 23.1302 4.368 23.2368C4.368 23.3488 4.33867 23.4342 4.28 23.4928C4.22133 23.5515 4.136 23.5808 4.024 23.5808H1.456V25.3488H3.848C3.96533 25.3488 4.05067 25.3782 4.104 25.4368C4.16267 25.4955 4.192 25.5782 4.192 25.6848C4.192 25.7968 4.16267 25.8822 4.104 25.9408C4.05067 25.9942 3.96533 26.0208 3.848 26.0208H1.456V27.8768H4.024C4.136 27.8768 4.22133 27.9062 4.28 27.9648C4.33867 28.0235 4.368 28.1062 4.368 28.2128C4.368 28.3248 4.33867 28.4102 4.28 28.4688C4.22133 28.5222 4.136 28.5488 4.024 28.5488H1.104ZM6.73569 28.6208C6.39435 28.6208 6.09302 28.5408 5.83169 28.3808C5.57569 28.2155 5.37569 27.9808 5.23169 27.6768C5.08769 27.3675 5.01569 27.0075 5.01569 26.5968C5.01569 26.1755 5.08769 25.8155 5.23169 25.5168C5.37569 25.2182 5.57569 24.9862 5.83169 24.8208C6.09302 24.6555 6.39435 24.5728 6.73569 24.5728C7.07702 24.5728 7.37035 24.6582 7.61569 24.8288C7.86635 24.9942 8.03435 25.2182 8.11969 25.5008H8.03169V23.2608C8.03169 23.1275 8.06635 23.0262 8.13569 22.9568C8.20502 22.8875 8.30369 22.8528 8.43169 22.8528C8.55969 22.8528 8.65835 22.8875 8.72769 22.9568C8.80235 23.0262 8.83969 23.1275 8.83969 23.2608V28.1968C8.83969 28.3248 8.80502 28.4262 8.73569 28.5008C8.66635 28.5702 8.56769 28.6048 8.43969 28.6048C8.31169 28.6048 8.21302 28.5702 8.14369 28.5008C8.07435 28.4262 8.03969 28.3248 8.03969 28.1968V27.4928L8.12769 27.6688C8.04235 27.9568 7.87435 28.1888 7.62369 28.3648C7.37835 28.5355 7.08235 28.6208 6.73569 28.6208ZM6.94369 27.9968C7.16235 27.9968 7.35435 27.9435 7.51969 27.8368C7.68502 27.7302 7.81302 27.5728 7.90369 27.3648C7.99969 27.1568 8.04769 26.9008 8.04769 26.5968C8.04769 26.1382 7.94635 25.7915 7.74369 25.5568C7.54102 25.3222 7.27435 25.2048 6.94369 25.2048C6.71969 25.2048 6.52502 25.2582 6.35969 25.3648C6.19435 25.4662 6.06369 25.6208 5.96769 25.8288C5.87702 26.0368 5.83169 26.2928 5.83169 26.5968C5.83169 27.0502 5.93302 27.3968 6.13569 27.6368C6.33835 27.8768 6.60769 27.9968 6.94369 27.9968ZM10.3743 28.5968C10.2463 28.5968 10.1476 28.5595 10.0783 28.4848C10.0089 28.4048 9.97425 28.2955 9.97425 28.1568V25.0368C9.97425 24.8982 10.0089 24.7915 10.0783 24.7168C10.1476 24.6422 10.2463 24.6048 10.3743 24.6048C10.5023 24.6048 10.6009 24.6422 10.6703 24.7168C10.7449 24.7915 10.7823 24.8982 10.7823 25.0368V28.1568C10.7823 28.2955 10.7476 28.4048 10.6783 28.4848C10.6089 28.5595 10.5076 28.5968 10.3743 28.5968ZM10.3743 23.7728C10.2143 23.7728 10.0889 23.7328 9.99825 23.6528C9.91292 23.5728 9.87025 23.4608 9.87025 23.3168C9.87025 23.1675 9.91292 23.0555 9.99825 22.9808C10.0889 22.9008 10.2143 22.8608 10.3743 22.8608C10.5343 22.8608 10.6569 22.9008 10.7423 22.9808C10.8329 23.0555 10.8783 23.1675 10.8783 23.3168C10.8783 23.4608 10.8329 23.5728 10.7423 23.6528C10.6569 23.7328 10.5343 23.7728 10.3743 23.7728ZM13.5836 28.6208C13.2636 28.6208 12.9942 28.5648 12.7756 28.4528C12.5569 28.3408 12.3942 28.1755 12.2876 27.9568C12.1809 27.7382 12.1276 27.4715 12.1276 27.1568V25.2688H11.6476C11.5409 25.2688 11.4582 25.2422 11.3996 25.1888C11.3409 25.1302 11.3116 25.0528 11.3116 24.9568C11.3116 24.8555 11.3409 24.7782 11.3996 24.7248C11.4582 24.6715 11.5409 24.6448 11.6476 24.6448H12.1276V23.8208C12.1276 23.6875 12.1622 23.5862 12.2316 23.5168C12.3062 23.4475 12.4076 23.4128 12.5356 23.4128C12.6636 23.4128 12.7622 23.4475 12.8316 23.5168C12.9009 23.5862 12.9356 23.6875 12.9356 23.8208V24.6448H13.8716C13.9782 24.6448 14.0609 24.6715 14.1196 24.7248C14.1782 24.7782 14.2076 24.8555 14.2076 24.9568C14.2076 25.0528 14.1782 25.1302 14.1196 25.1888C14.0609 25.2422 13.9782 25.2688 13.8716 25.2688H12.9356V27.0928C12.9356 27.3755 12.9942 27.5888 13.1116 27.7328C13.2342 27.8768 13.4316 27.9488 13.7036 27.9488C13.7996 27.9488 13.8822 27.9408 13.9516 27.9248C14.0262 27.9035 14.0876 27.8902 14.1356 27.8848C14.1942 27.8848 14.2422 27.9062 14.2796 27.9488C14.3169 27.9862 14.3356 28.0608 14.3356 28.1728C14.3356 28.2528 14.3196 28.3275 14.2876 28.3968C14.2609 28.4662 14.2102 28.5115 14.1356 28.5328C14.0716 28.5542 13.9836 28.5728 13.8716 28.5888C13.7649 28.6102 13.6689 28.6208 13.5836 28.6208ZM16.0894 28.6208C15.8174 28.6208 15.5721 28.5675 15.3534 28.4608C15.1401 28.3542 14.9721 28.2102 14.8494 28.0288C14.7268 27.8475 14.6654 27.6422 14.6654 27.4128C14.6654 27.1248 14.7374 26.8982 14.8814 26.7328C15.0308 26.5622 15.2734 26.4422 15.6094 26.3728C15.9508 26.2982 16.4094 26.2608 16.9854 26.2608H17.3614V26.7568H16.9934C16.6094 26.7568 16.3054 26.7755 16.0814 26.8128C15.8574 26.8502 15.6974 26.9142 15.6014 27.0048C15.5108 27.0902 15.4654 27.2102 15.4654 27.3648C15.4654 27.5675 15.5348 27.7328 15.6734 27.8608C15.8121 27.9835 16.0041 28.0448 16.2494 28.0448C16.4468 28.0448 16.6201 27.9995 16.7694 27.9088C16.9188 27.8128 17.0361 27.6848 17.1214 27.5248C17.2121 27.3648 17.2574 27.1808 17.2574 26.9728V26.0528C17.2574 25.7488 17.1934 25.5302 17.0654 25.3968C16.9374 25.2635 16.7268 25.1968 16.4334 25.1968C16.2628 25.1968 16.0841 25.2182 15.8974 25.2608C15.7161 25.3035 15.5268 25.3755 15.3294 25.4768C15.2388 25.5195 15.1614 25.5328 15.0974 25.5168C15.0334 25.5008 14.9828 25.4662 14.9454 25.4128C14.9081 25.3542 14.8868 25.2928 14.8814 25.2288C14.8814 25.1595 14.8974 25.0928 14.9294 25.0288C14.9668 24.9648 15.0281 24.9168 15.1134 24.8848C15.3481 24.7728 15.5801 24.6928 15.8094 24.6448C16.0388 24.5968 16.2548 24.5728 16.4574 24.5728C16.8148 24.5728 17.1081 24.6288 17.3374 24.7408C17.5721 24.8528 17.7454 25.0235 17.8574 25.2528C17.9694 25.4822 18.0254 25.7782 18.0254 26.1408V28.1968C18.0254 28.3248 17.9934 28.4262 17.9294 28.5008C17.8654 28.5702 17.7721 28.6048 17.6494 28.6048C17.5321 28.6048 17.4388 28.5702 17.3694 28.5008C17.3001 28.4262 17.2654 28.3248 17.2654 28.1968V27.6768H17.3374C17.2948 27.8742 17.2148 28.0448 17.0974 28.1888C16.9854 28.3275 16.8441 28.4342 16.6734 28.5088C16.5028 28.5835 16.3081 28.6208 16.0894 28.6208ZM19.5463 28.6048C19.413 28.6048 19.3116 28.5702 19.2423 28.5008C19.173 28.4262 19.1383 28.3248 19.1383 28.1968V24.9968C19.1383 24.8635 19.173 24.7622 19.2423 24.6928C19.3116 24.6235 19.4076 24.5888 19.5303 24.5888C19.6583 24.5888 19.7543 24.6235 19.8183 24.6928C19.8876 24.7622 19.9223 24.8635 19.9223 24.9968V25.5808H19.8423C19.9276 25.2608 20.085 25.0182 20.3143 24.8528C20.5436 24.6875 20.837 24.5915 21.1943 24.5648C21.2903 24.5595 21.365 24.5835 21.4183 24.6368C21.477 24.6902 21.509 24.7728 21.5143 24.8848C21.525 24.9968 21.501 25.0875 21.4423 25.1568C21.3836 25.2208 21.293 25.2582 21.1703 25.2688L21.0183 25.2848C20.6716 25.3168 20.4076 25.4262 20.2263 25.6128C20.045 25.7995 19.9543 26.0555 19.9543 26.3808V28.1968C19.9543 28.3248 19.9196 28.4262 19.8503 28.5008C19.7863 28.5702 19.685 28.6048 19.5463 28.6048Z" fill="#747488"/>
<defs>
<clipPath id="clip0_83801_4523">
<rect width="16" height="16" fill="white" transform="translate(3 0.548828)"/>
</clipPath>
</defs>
</svg>
